<mxfile host="app.diagrams.net" agent="Mozilla/5.0 (Windows NT 10.0; Win64; x64; rv:133.0) Gecko/20100101 Firefox/133.0" version="24.7.7">
  <diagram name="StrÃ¡nka-1" id="tPQLCeAHyIVqHolzOuc0">
    <mxGraphModel dx="1375" dy="617" grid="1" gridSize="10" guides="1" tooltips="1" connect="1" arrows="1" fold="1" page="1" pageScale="1" pageWidth="60" pageHeight="60" math="0" shadow="0">
      <root>
        <mxCell id="0" />
        <mxCell id="1" parent="0" />
        <mxCell id="rbAQHlga16BtLeT3uhwm-1" value="gNodeB#1" style="ellipse;whiteSpace=wrap;html=1;fillColor=#d5e8d4;strokeColor=#82b366;" vertex="1" parent="1">
          <mxGeometry x="668" y="864" width="120" height="80" as="geometry" />
        </mxCell>
        <mxCell id="rbAQHlga16BtLeT3uhwm-2" value="gNodeB#2" style="ellipse;whiteSpace=wrap;html=1;fillColor=#d5e8d4;strokeColor=#82b366;" vertex="1" parent="1">
          <mxGeometry x="928" y="864" width="120" height="80" as="geometry" />
        </mxCell>
        <mxCell id="rbAQHlga16BtLeT3uhwm-3" value="gNodeB#3" style="ellipse;whiteSpace=wrap;html=1;fillColor=#d5e8d4;strokeColor=#82b366;" vertex="1" parent="1">
          <mxGeometry x="1188" y="864" width="120" height="80" as="geometry" />
        </mxCell>
        <mxCell id="rbAQHlga16BtLeT3uhwm-4" value="UE#2" style="rounded=0;whiteSpace=wrap;html=1;fillColor=#e1d5e7;strokeColor=#9673a6;" vertex="1" parent="1">
          <mxGeometry x="768" y="970" width="40" height="40" as="geometry" />
        </mxCell>
        <mxCell id="rbAQHlga16BtLeT3uhwm-5" value="UE#1" style="rounded=0;whiteSpace=wrap;html=1;fillColor=#e1d5e7;strokeColor=#9673a6;" vertex="1" parent="1">
          <mxGeometry x="648" y="970" width="40" height="39" as="geometry" />
        </mxCell>
        <mxCell id="rbAQHlga16BtLeT3uhwm-6" value="UE#4" style="rounded=0;whiteSpace=wrap;html=1;fillColor=#e1d5e7;strokeColor=#9673a6;" vertex="1" parent="1">
          <mxGeometry x="1028" y="970" width="40" height="40" as="geometry" />
        </mxCell>
        <mxCell id="rbAQHlga16BtLeT3uhwm-7" value="UE#5" style="rounded=0;whiteSpace=wrap;html=1;fillColor=#e1d5e7;strokeColor=#9673a6;" vertex="1" parent="1">
          <mxGeometry x="1288" y="970" width="40" height="40" as="geometry" />
        </mxCell>
        <mxCell id="rbAQHlga16BtLeT3uhwm-8" value="Internet" style="ellipse;shape=cloud;whiteSpace=wrap;html=1;fillColor=#dae8fc;strokeColor=#6c8ebf;" vertex="1" parent="1">
          <mxGeometry x="918" y="610" width="140" height="90" as="geometry" />
        </mxCell>
        <mxCell id="rbAQHlga16BtLeT3uhwm-9" value="" style="endArrow=classic;html=1;rounded=0;entryX=0;entryY=1;entryDx=0;entryDy=0;startArrow=classic;startFill=1;" edge="1" parent="1" target="rbAQHlga16BtLeT3uhwm-1">
          <mxGeometry width="50" height="50" relative="1" as="geometry">
            <mxPoint x="668" y="970" as="sourcePoint" />
            <mxPoint x="698" y="946" as="targetPoint" />
          </mxGeometry>
        </mxCell>
        <mxCell id="rbAQHlga16BtLeT3uhwm-10" value="" style="endArrow=classic;html=1;rounded=0;entryX=1;entryY=1;entryDx=0;entryDy=0;startArrow=classic;startFill=1;" edge="1" parent="1" target="rbAQHlga16BtLeT3uhwm-1">
          <mxGeometry width="50" height="50" relative="1" as="geometry">
            <mxPoint x="788" y="970" as="sourcePoint" />
            <mxPoint x="758" y="944" as="targetPoint" />
          </mxGeometry>
        </mxCell>
        <mxCell id="rbAQHlga16BtLeT3uhwm-11" value="" style="endArrow=classic;html=1;rounded=0;entryX=1;entryY=1;entryDx=0;entryDy=0;startArrow=classic;startFill=1;" edge="1" parent="1" target="rbAQHlga16BtLeT3uhwm-2">
          <mxGeometry width="50" height="50" relative="1" as="geometry">
            <mxPoint x="1048" y="970" as="sourcePoint" />
            <mxPoint x="968" y="932" as="targetPoint" />
          </mxGeometry>
        </mxCell>
        <mxCell id="rbAQHlga16BtLeT3uhwm-12" value="" style="endArrow=classic;html=1;rounded=0;entryX=1;entryY=1;entryDx=0;entryDy=0;startArrow=classic;startFill=1;" edge="1" parent="1" target="rbAQHlga16BtLeT3uhwm-3">
          <mxGeometry width="50" height="50" relative="1" as="geometry">
            <mxPoint x="1308" y="970" as="sourcePoint" />
            <mxPoint x="1308" y="944" as="targetPoint" />
          </mxGeometry>
        </mxCell>
        <mxCell id="rbAQHlga16BtLeT3uhwm-13" value="" style="endArrow=classic;html=1;rounded=0;exitX=0.5;exitY=0;exitDx=0;exitDy=0;startArrow=classic;startFill=1;" edge="1" parent="1">
          <mxGeometry width="50" height="50" relative="1" as="geometry">
            <mxPoint x="987.8" y="864" as="sourcePoint" />
            <mxPoint x="988" y="816" as="targetPoint" />
          </mxGeometry>
        </mxCell>
        <mxCell id="rbAQHlga16BtLeT3uhwm-14" value="" style="endArrow=classic;html=1;rounded=0;entryX=1;entryY=0.5;entryDx=0;entryDy=0;exitX=0.5;exitY=0;exitDx=0;exitDy=0;startArrow=classic;startFill=1;" edge="1" parent="1" source="rbAQHlga16BtLeT3uhwm-3" target="rbAQHlga16BtLeT3uhwm-25">
          <mxGeometry width="50" height="50" relative="1" as="geometry">
            <mxPoint x="1248" y="846" as="sourcePoint" />
            <mxPoint x="1022.5000000000002" y="780" as="targetPoint" />
          </mxGeometry>
        </mxCell>
        <mxCell id="rbAQHlga16BtLeT3uhwm-15" value="" style="endArrow=classic;html=1;rounded=0;entryX=0;entryY=0.5;entryDx=0;entryDy=0;exitX=0.5;exitY=0;exitDx=0;exitDy=0;startArrow=classic;startFill=1;" edge="1" parent="1" source="rbAQHlga16BtLeT3uhwm-1" target="rbAQHlga16BtLeT3uhwm-25">
          <mxGeometry width="50" height="50" relative="1" as="geometry">
            <mxPoint x="1038" y="1064" as="sourcePoint" />
            <mxPoint x="953.5" y="780" as="targetPoint" />
          </mxGeometry>
        </mxCell>
        <mxCell id="rbAQHlga16BtLeT3uhwm-16" value="" style="endArrow=classic;html=1;rounded=0;exitX=0.5;exitY=0;exitDx=0;exitDy=0;startArrow=classic;startFill=1;" edge="1" parent="1" source="rbAQHlga16BtLeT3uhwm-25">
          <mxGeometry width="50" height="50" relative="1" as="geometry">
            <mxPoint x="987.8" y="744" as="sourcePoint" />
            <mxPoint x="988" y="700" as="targetPoint" />
          </mxGeometry>
        </mxCell>
        <mxCell id="rbAQHlga16BtLeT3uhwm-17" value="" style="endArrow=classic;html=1;rounded=0;startArrow=classic;startFill=1;" edge="1" parent="1">
          <mxGeometry width="50" height="50" relative="1" as="geometry">
            <mxPoint x="987.76" y="620" as="sourcePoint" />
            <mxPoint x="988" y="580" as="targetPoint" />
          </mxGeometry>
        </mxCell>
        <mxCell id="rbAQHlga16BtLeT3uhwm-18" value="UE#3" style="rounded=0;whiteSpace=wrap;html=1;fillColor=#e1d5e7;strokeColor=#9673a6;" vertex="1" parent="1">
          <mxGeometry x="908" y="970" width="40" height="40" as="geometry" />
        </mxCell>
        <mxCell id="rbAQHlga16BtLeT3uhwm-19" value="" style="endArrow=classic;html=1;rounded=0;entryX=0;entryY=1;entryDx=0;entryDy=0;startArrow=classic;startFill=1;" edge="1" parent="1" target="rbAQHlga16BtLeT3uhwm-2">
          <mxGeometry width="50" height="50" relative="1" as="geometry">
            <mxPoint x="928" y="970" as="sourcePoint" />
            <mxPoint x="958" y="932" as="targetPoint" />
          </mxGeometry>
        </mxCell>
        <mxCell id="rbAQHlga16BtLeT3uhwm-20" value="In phone call" style="text;html=1;align=center;verticalAlign=middle;resizable=0;points=[];autosize=1;strokeColor=none;fillColor=none;" vertex="1" parent="1">
          <mxGeometry x="623" y="1009" width="90" height="30" as="geometry" />
        </mxCell>
        <mxCell id="rbAQHlga16BtLeT3uhwm-21" value="Browsing web" style="text;html=1;align=center;verticalAlign=middle;resizable=0;points=[];autosize=1;strokeColor=none;fillColor=none;" vertex="1" parent="1">
          <mxGeometry x="738" y="1010" width="100" height="30" as="geometry" />
        </mxCell>
        <mxCell id="rbAQHlga16BtLeT3uhwm-22" value="In phone call" style="text;html=1;align=center;verticalAlign=middle;resizable=0;points=[];autosize=1;strokeColor=none;fillColor=none;" vertex="1" parent="1">
          <mxGeometry x="883" y="1010" width="90" height="30" as="geometry" />
        </mxCell>
        <mxCell id="rbAQHlga16BtLeT3uhwm-23" value="Browsing web" style="text;html=1;align=center;verticalAlign=middle;resizable=0;points=[];autosize=1;strokeColor=none;fillColor=none;" vertex="1" parent="1">
          <mxGeometry x="998" y="1010" width="100" height="30" as="geometry" />
        </mxCell>
        <mxCell id="rbAQHlga16BtLeT3uhwm-24" value="Browsing web" style="text;html=1;align=center;verticalAlign=middle;resizable=0;points=[];autosize=1;strokeColor=none;fillColor=none;" vertex="1" parent="1">
          <mxGeometry x="1258" y="1009" width="100" height="30" as="geometry" />
        </mxCell>
        <mxCell id="rbAQHlga16BtLeT3uhwm-25" value="5G Core" style="ellipse;whiteSpace=wrap;html=1;fillColor=#f8cecc;strokeColor=#b85450;" vertex="1" parent="1">
          <mxGeometry x="948" y="740" width="80" height="80" as="geometry" />
        </mxCell>
        <mxCell id="rbAQHlga16BtLeT3uhwm-26" value="Remote host" style="rounded=0;whiteSpace=wrap;html=1;fillColor=#e1d5e7;strokeColor=#9673a6;" vertex="1" parent="1">
          <mxGeometry x="943" y="500" width="90" height="80" as="geometry" />
        </mxCell>
      </root>
    </mxGraphModel>
  </diagram>
</mxfile>
